<?xml version="1.0" encoding="UTF-8" standalone="no"?>
<!-- Created with Inkscape (http://www.inkscape.org/) -->

<svg
   width="200mm"
   height="100mm"
   viewBox="0 0 200 100"
   version="1.1"
   id="svg1"
   xml:space="preserve"
   inkscape:version="1.4.2 (f4327f4, 2025-05-13)"
   sodipodi:docname="icontv.svg"
   xmlns:inkscape="http://www.inkscape.org/namespaces/inkscape"
   xmlns:sodipodi="http://sodipodi.sourceforge.net/DTD/sodipodi-0.dtd"
   xmlns="http://www.w3.org/2000/svg"
   xmlns:svg="http://www.w3.org/2000/svg"><sodipodi:namedview
     id="namedview1"
     pagecolor="#ffffff"
     bordercolor="#000000"
     borderopacity="0.25"
     inkscape:showpageshadow="2"
     inkscape:pageopacity="0.0"
     inkscape:pagecheckerboard="0"
     inkscape:deskcolor="#d1d1d1"
     inkscape:document-units="mm"
     showguides="false"
     inkscape:zoom="0.34431467"
     inkscape:cx="347.06625"
     inkscape:cy="262.84096"
     inkscape:window-width="1920"
     inkscape:window-height="991"
     inkscape:window-x="-9"
     inkscape:window-y="-9"
     inkscape:window-maximized="1"
     inkscape:current-layer="layer1" /><defs
     id="defs1" /><g
     inkscape:label="Capa 1"
     inkscape:groupmode="layer"
     id="layer1"><path
       id="path7"
       style="fill:#faef7f;fill-opacity:1;stroke-width:1.98079"
       d="m 108.97924,16.731554 -2.80364,1.464772 c -2.03871,1.06503 -3.2337,2.160602 -4.38305,4.01763 -1.53496,2.480064 -1.58555,2.766999 -1.74934,10.000554 -0.210521,9.297912 0.2549,11.21965 3.49969,14.460396 3.07536,3.071546 4.94198,3.591186 12.91885,3.59489 3.46086,0.0016 7.09638,0.233276 8.07825,0.514866 2.87505,0.824522 5.56223,3.014182 7.04544,5.739327 1.28658,2.363849 1.38186,2.995544 1.38186,9.179637 0,7.986512 0.57461,10.555495 2.99096,13.378451 3.23429,3.778548 4.49921,4.158085 13.93119,4.184489 7.22131,0.02003 8.53235,-0.10715 10.29435,-1.006198 2.96136,-1.510786 5.63589,-4.894446 6.29411,-7.963612 0.30527,-1.423415 0.55479,-5.433634 0.55479,-8.91146 0,-5.840705 0.10564,-6.516492 1.38186,-8.861307 1.48321,-2.725145 4.17039,-4.914805 7.04544,-5.739327 0.98186,-0.28159 4.6174,-0.513242 8.07825,-0.514866 7.97688,-0.004 9.84348,-0.523344 12.91885,-3.59489 3.24479,-3.240746 3.71021,-5.162484 3.49969,-14.460396 -0.16382,-7.233555 -0.21436,-7.52049 -1.74933,-10.000554 -1.14936,-1.857028 -2.34435,-2.9526 -4.38306,-4.01763 l -2.80364,-1.464772 H 150 Z"
       sodipodi:nodetypes="ccssssssssscsssscssscccc" /></g></svg>
