<?xml version="1.0" encoding="UTF-8" standalone="no"?>
<!-- Created with Inkscape (http://www.inkscape.org/) -->

<svg
   width="100mm"
   height="100mm"
   viewBox="0 0 100 100"
   version="1.1"
   id="svg1"
   xml:space="preserve"
   inkscape:version="1.4.2 (f4327f4, 2025-05-13)"
   sodipodi:docname="icon.svg"
   xmlns:inkscape="http://www.inkscape.org/namespaces/inkscape"
   xmlns:sodipodi="http://sodipodi.sourceforge.net/DTD/sodipodi-0.dtd"
   xmlns="http://www.w3.org/2000/svg"
   xmlns:svg="http://www.w3.org/2000/svg"><sodipodi:namedview
     id="namedview1"
     pagecolor="#ffffff"
     bordercolor="#000000"
     borderopacity="0.25"
     inkscape:showpageshadow="2"
     inkscape:pageopacity="0.0"
     inkscape:pagecheckerboard="0"
     inkscape:deskcolor="#d1d1d1"
     inkscape:document-units="mm"
     showguides="false"
     inkscape:zoom="0.34431467"
     inkscape:cx="91.48608"
     inkscape:cy="803.04448"
     inkscape:window-width="1920"
     inkscape:window-height="991"
     inkscape:window-x="-9"
     inkscape:window-y="-9"
     inkscape:window-maximized="1"
     inkscape:current-layer="layer1" /><defs
     id="defs1" /><g
     inkscape:label="Capa 1"
     inkscape:groupmode="layer"
     id="layer1"><path
       id="path7"
       style="fill:#ffb779;fill-opacity:1;stroke-width:1.98079"
       d="m 8.9792386,16.731554 -2.80364,1.464772 c -2.0387097,1.06503 -3.2337018,2.160602 -4.3830537,4.01763 -1.53496002,2.480064 -1.58555002,2.766999 -1.74933203,10.000554 -0.210524,9.297912 0.25489999,11.21965 3.49968593,14.460396 3.0753619,3.071546 4.9419798,3.591186 12.9188542,3.59489 3.460852,0.0016 7.096381,0.233276 8.078251,0.514866 2.875042,0.824522 5.562224,3.014182 7.045438,5.739327 1.286574,2.363849 1.38186,2.995544 1.38186,9.179637 0,7.986512 0.574606,10.555495 2.990958,13.378451 3.234292,3.778548 4.499209,4.158085 13.931191,4.184489 7.221309,0.02003 8.532347,-0.10715 10.294344,-1.006198 2.961362,-1.510786 5.635896,-4.894446 6.294116,-7.963612 0.305272,-1.423415 0.554789,-5.433634 0.554789,-8.91146 0,-5.840705 0.105638,-6.516492 1.381863,-8.861307 1.483208,-2.725145 4.170391,-4.914805 7.045433,-5.739327 0.981868,-0.28159 4.617403,-0.513242 8.078252,-0.514866 7.976882,-0.004 9.843481,-0.523344 12.918853,-3.59489 3.244785,-3.240746 3.710209,-5.162484 3.499687,-14.460396 -0.16382,-7.233555 -0.214363,-7.52049 -1.749331,-10.000554 -1.149355,-1.857028 -2.344351,-2.9526 -4.383054,-4.01763 L 91.020761,16.731554 H 50.000002 Z"
       sodipodi:nodetypes="ccssssssssscsssscssscccc" /></g></svg>
